<mxfile host="app.diagrams.net" modified="2024-06-27T14:36:20.707Z" agent="Mozilla/5.0 (Windows NT 10.0; Win64; x64; rv:127.0) Gecko/20100101 Firefox/127.0" etag="t4UQSoWMg5XGW5zRUxAm" version="24.4.8" type="device">
  <diagram name="Page-1" id="bVuFEIf3aUhZrAqiFHV3">
    <mxGraphModel dx="1858" dy="2280" grid="1" gridSize="10" guides="1" tooltips="1" connect="1" arrows="1" fold="1" page="1" pageScale="1" pageWidth="850" pageHeight="1100" math="0" shadow="0">
      <root>
        <mxCell id="0" />
        <mxCell id="1" parent="0" />
        <mxCell id="PpxldKTlLKgCbzOTVSuM-4" value="" style="image;aspect=fixed;html=1;points=[];align=center;fontSize=12;image=img/lib/azure2/general/Load_Test.svg;" vertex="1" parent="1">
          <mxGeometry x="620" y="-1040" width="86.55" height="84" as="geometry" />
        </mxCell>
        <mxCell id="PpxldKTlLKgCbzOTVSuM-5" value="" style="verticalLabelPosition=bottom;html=1;verticalAlign=top;align=center;strokeColor=none;fillColor=#00BEF2;shape=mxgraph.azure.code_file;pointerEvents=1;" vertex="1" parent="1">
          <mxGeometry x="350" y="-1000" width="104.5" height="110" as="geometry" />
        </mxCell>
        <mxCell id="PpxldKTlLKgCbzOTVSuM-8" value="" style="endArrow=none;html=1;rounded=0;entryX=0;entryY=0.5;entryDx=0;entryDy=0;entryPerimeter=0;startArrow=classic;startFill=1;endFill=0;strokeWidth=2;" edge="1" parent="1" source="PpxldKTlLKgCbzOTVSuM-6" target="PpxldKTlLKgCbzOTVSuM-5">
          <mxGeometry width="50" height="50" relative="1" as="geometry">
            <mxPoint x="170" y="-790" as="sourcePoint" />
            <mxPoint x="600" y="-940" as="targetPoint" />
          </mxGeometry>
        </mxCell>
        <mxCell id="PpxldKTlLKgCbzOTVSuM-9" value="&lt;font style=&quot;font-size: 16px;&quot;&gt;Implements&lt;/font&gt;" style="edgeLabel;html=1;align=center;verticalAlign=middle;resizable=0;points=[];" vertex="1" connectable="0" parent="PpxldKTlLKgCbzOTVSuM-8">
          <mxGeometry x="0.0292" y="-1" relative="1" as="geometry">
            <mxPoint y="15" as="offset" />
          </mxGeometry>
        </mxCell>
        <mxCell id="PpxldKTlLKgCbzOTVSuM-10" value="&lt;font style=&quot;font-size: 16px;&quot;&gt;Verifies&lt;/font&gt;" style="endArrow=none;html=1;rounded=0;exitX=1;exitY=0.5;exitDx=0;exitDy=0;exitPerimeter=0;endFill=0;startArrow=classic;startFill=1;strokeWidth=2;" edge="1" parent="1" source="PpxldKTlLKgCbzOTVSuM-5" target="PpxldKTlLKgCbzOTVSuM-4">
          <mxGeometry x="-0.1555" y="18" width="50" height="50" relative="1" as="geometry">
            <mxPoint x="280" y="-762" as="sourcePoint" />
            <mxPoint x="463" y="-611" as="targetPoint" />
            <mxPoint as="offset" />
          </mxGeometry>
        </mxCell>
        <mxCell id="PpxldKTlLKgCbzOTVSuM-16" value="Customer" style="verticalLabelPosition=bottom;sketch=0;html=1;fillColor=#282828;strokeColor=none;verticalAlign=top;pointerEvents=1;align=center;shape=mxgraph.cisco_safe.people_places_things_icons.icon2;" vertex="1" parent="1">
          <mxGeometry x="620" y="-910" width="50" height="41" as="geometry" />
        </mxCell>
        <mxCell id="PpxldKTlLKgCbzOTVSuM-19" value="" style="group" vertex="1" connectable="0" parent="1">
          <mxGeometry x="54.5" y="-1050" width="170" height="190" as="geometry" />
        </mxCell>
        <mxCell id="PpxldKTlLKgCbzOTVSuM-6" value="" style="html=1;verticalLabelPosition=bottom;align=left;labelBackgroundColor=#ffffff;verticalAlign=top;strokeWidth=2;strokeColor=#0080F0;shadow=0;dashed=0;shape=mxgraph.ios7.icons.documents;" vertex="1" parent="PpxldKTlLKgCbzOTVSuM-19">
          <mxGeometry y="10" width="170" height="180" as="geometry" />
        </mxCell>
        <mxCell id="PpxldKTlLKgCbzOTVSuM-7" value="&lt;div align=&quot;left&quot;&gt;Specification&lt;br&gt;&lt;br&gt;x SHALL y...&lt;br&gt;x SHALL NOT z...&lt;br&gt;&lt;/div&gt;" style="text;html=1;align=center;verticalAlign=middle;whiteSpace=wrap;rounded=0;" vertex="1" parent="PpxldKTlLKgCbzOTVSuM-19">
          <mxGeometry x="5.5" width="110" height="130" as="geometry" />
        </mxCell>
        <mxCell id="PpxldKTlLKgCbzOTVSuM-21" value="&lt;font style=&quot;font-size: 16px;&quot;&gt;Validates&lt;/font&gt;" style="endArrow=none;html=1;rounded=0;exitX=0.998;exitY=0.603;exitDx=0;exitDy=0;exitPerimeter=0;endFill=0;startArrow=classic;startFill=1;strokeWidth=2;entryX=0.08;entryY=0.659;entryDx=0;entryDy=0;entryPerimeter=0;" edge="1" parent="1" source="PpxldKTlLKgCbzOTVSuM-5" target="PpxldKTlLKgCbzOTVSuM-16">
          <mxGeometry x="0.024" y="-22" width="50" height="50" relative="1" as="geometry">
            <mxPoint x="465" y="-935" as="sourcePoint" />
            <mxPoint x="630" y="-977" as="targetPoint" />
            <mxPoint as="offset" />
          </mxGeometry>
        </mxCell>
      </root>
    </mxGraphModel>
  </diagram>
</mxfile>
